<?xml version="1.0" encoding="utf-8"?>
<!-- Generator: Securebit AG -->
<svg version="1.1" id="Layer_1" xmlns="http://www.w3.org/2000/svg" xmlns:xlink="http://www.w3.org/1999/xlink" x="0px" y="0px"
	 viewBox="0 0 444.5 99.1" style="enable-background:new 0 0 444.5 99.1;" xml:space="preserve">
<g>
	<g>
		<path fill="#FFFFFF" d="M97.3,99.1c7.9,0,10-4.6,9.5-10.6c0-0.3,0-0.5,0-0.8L103,37.7L0,99.1H97.3z M50.8,81.5l36-18.2
			c2-1,4.5,0.4,4.6,2.6l1,14.6c0.1,1.8-1.3,3.4-3.2,3.4H51.4C50,84,49.6,82.1,50.8,81.5z"/>
		<path fill="#FFFFFF" d="M50.1,0c-7.9,0-10,4.6-9.5,10.6c0,0.3,0,0.5,0,0.8l3.9,50.1L147.5,0L50.1,0z M96.7,17.6l-36,18.2
			c-2,1-4.5-0.4-4.6-2.6l-1-14.6c-0.1-1.8,1.3-3.4,3.2-3.4h37.8C97.4,15.1,97.9,16.9,96.7,17.6z"/>
	</g>
	<g>
		<path fill="#FFFFFF" d="M153.7,85.4c0.2,2.2,0.8,3.8,1.7,5c1.7,2.1,4.6,3.2,8.7,3.2c2.5,0,4.6-0.5,6.5-1.6c1.9-1.1,2.8-2.7,2.8-4.9
			c0-1.7-0.7-2.9-2.2-3.8c-1-0.5-2.8-1.1-5.7-1.8l-5.3-1.3c-3.4-0.8-5.8-1.7-7.4-2.8c-2.8-1.8-4.3-4.2-4.3-7.3c0-3.7,1.3-6.6,4-8.9
			c2.7-2.3,6.3-3.4,10.8-3.4c5.9,0,10.2,1.7,12.8,5.1c1.6,2.2,2.4,4.5,2.4,7h-6.2c-0.1-1.5-0.7-2.8-1.6-4c-1.5-1.7-4.2-2.6-8-2.6
			c-2.5,0-4.4,0.5-5.7,1.4c-1.3,0.9-1.9,2.2-1.9,3.7c0,1.7,0.9,3,2.6,4c1,0.6,2.4,1.1,4.4,1.6l4.4,1.1c4.8,1.1,8,2.2,9.6,3.3
			c2.5,1.7,3.8,4.3,3.8,7.9c0,3.5-1.3,6.4-4,9c-2.7,2.5-6.7,3.8-12.1,3.8c-5.8,0-10-1.3-12.4-3.9c-2.4-2.6-3.7-5.9-3.9-9.7H153.7z"
			/>
		<path fill="#FFFFFF" d="M211,59.9c2.6,1.3,4.5,3,5.9,5c1.3,2,2.2,4.2,2.6,6.8c0.4,1.8,0.6,4.6,0.6,8.6h-28.2c0.1,3.9,1,7.1,2.8,9.5
			c1.7,2.4,4.4,3.6,8,3.6c3.4,0,6.1-1.1,8.1-3.4c1.1-1.3,1.9-2.8,2.4-4.6h6.4c-0.2,1.4-0.7,3-1.7,4.8c-1,1.8-2,3.2-3.2,4.3
			c-2,1.9-4.4,3.2-7.3,3.9c-1.6,0.4-3.3,0.6-5.3,0.6c-4.8,0-8.9-1.8-12.2-5.3s-5-8.4-5-14.8c0-6.2,1.7-11.3,5-15.2
			c3.4-3.9,7.8-5.8,13.2-5.8C205.7,57.9,208.4,58.6,211,59.9z M213.3,75.1c-0.3-2.8-0.9-5.1-1.8-6.8c-1.8-3.1-4.7-4.7-8.9-4.7
			c-3,0-5.5,1.1-7.5,3.2c-2,2.2-3.1,4.9-3.2,8.2H213.3z"/>
		<path fill="#FFFFFF" d="M253.9,60.8c2.7,2.1,4.4,5.8,4.9,11h-6.3c-0.4-2.4-1.3-4.4-2.6-6c-1.4-1.6-3.6-2.4-6.6-2.4
			c-4.2,0-7.1,2-8.9,6.1c-1.2,2.6-1.7,5.9-1.7,9.7c0,3.9,0.8,7.2,2.5,9.8s4.2,4,7.8,4c2.7,0,4.9-0.8,6.4-2.5
			c1.6-1.6,2.7-3.9,3.3-6.8h6.3c-0.7,5.1-2.5,8.9-5.4,11.3c-2.9,2.4-6.6,3.6-11.1,3.6c-5.1,0-9.1-1.9-12.1-5.6
			c-3-3.7-4.5-8.3-4.5-13.9c0-6.8,1.7-12.1,5-15.9c3.3-3.8,7.5-5.7,12.7-5.7C247.6,57.7,251.2,58.7,253.9,60.8z"/>
		<path fill="#FFFFFF" d="M271.9,58.8v25.8c0,2,0.3,3.6,0.9,4.9c1.1,2.3,3.2,3.5,6.3,3.5c4.4,0,7.4-2,9-6.1c0.9-2.2,1.3-5.2,1.3-9V58.8
			h6.5v38.8h-6.2l0.1-5.7c-0.8,1.5-1.9,2.7-3.1,3.7c-2.4,2-5.4,3-8.9,3c-5.4,0-9.1-1.8-11.1-5.5c-1.1-2-1.6-4.6-1.6-7.9V58.8H271.9z
			"/>
		<path fill="#FFFFFF" d="M306.8,58.8h6.2v6.7c0.5-1.3,1.8-2.9,3.7-4.8c2-1.9,4.3-2.8,6.8-2.8c0.1,0,0.3,0,0.6,0c0.3,0,0.8,0.1,1.5,0.1
			V65c-0.4-0.1-0.7-0.1-1.1-0.1c-0.3,0-0.7,0-1.1,0c-3.3,0-5.8,1.1-7.6,3.2c-1.8,2.1-2.6,4.5-2.6,7.3v22.3h-6.5V58.8z"/>
		<path fill="#FFFFFF" d="M355.4,59.9c2.6,1.3,4.5,3,5.9,5c1.3,2,2.2,4.2,2.6,6.8c0.4,1.8,0.6,4.6,0.6,8.6h-28.2c0.1,3.9,1,7.1,2.8,9.5
			c1.7,2.4,4.4,3.6,8,3.6c3.4,0,6.1-1.1,8.1-3.4c1.1-1.3,1.9-2.8,2.4-4.6h6.4c-0.2,1.4-0.7,3-1.7,4.8c-1,1.8-2,3.2-3.2,4.3
			c-2,1.9-4.4,3.2-7.3,3.9c-1.6,0.4-3.3,0.6-5.3,0.6c-4.8,0-8.9-1.8-12.2-5.3c-3.3-3.5-5-8.4-5-14.8c0-6.2,1.7-11.3,5-15.2
			s7.8-5.8,13.2-5.8C350.1,57.9,352.8,58.6,355.4,59.9z M357.7,75.1c-0.3-2.8-0.9-5.1-1.8-6.8c-1.8-3.1-4.7-4.7-8.9-4.7
			c-3,0-5.5,1.1-7.5,3.2c-2,2.2-3.1,4.9-3.2,8.2H357.7z"/>
		<path fill="#FFFFFF" d="M372.1,44.2h6.3v19.3c1.4-1.9,3.1-3.3,5.1-4.3c2-1,4.1-1.5,6.5-1.5c4.9,0,8.8,1.7,11.8,5
			c3,3.3,4.5,8.2,4.5,14.7c0,6.1-1.5,11.2-4.5,15.3c-3,4.1-7.1,6.1-12.4,6.1c-3,0-5.5-0.7-7.5-2.1c-1.2-0.8-2.5-2.2-3.9-4.1v5h-6
			V44.2z M397.1,88.9c1.8-2.8,2.6-6.5,2.6-11.1c0-4.1-0.9-7.5-2.6-10.1c-1.8-2.7-4.3-4-7.8-4c-3,0-5.6,1.1-7.8,3.3
			c-2.2,2.2-3.4,5.8-3.4,10.9c0,3.6,0.5,6.6,1.4,8.9c1.7,4.3,4.9,6.4,9.6,6.4C392.7,93.1,395.3,91.7,397.1,88.9z"/>
		<path fill="#FFFFFF" d="M414,44.4h6.6v7.4H414V44.4z M414,59h6.6v38.6H414V59z"/>
		<path fill="#FFFFFF" d="M431.8,47.9h6.6v10.8h6.2v5.3h-6.2v25.3c0,1.4,0.5,2.3,1.4,2.7c0.5,0.3,1.4,0.4,2.5,0.4c0.3,0,0.7,0,1,0
			c0.4,0,0.8-0.1,1.3-0.1v5.2c-0.8,0.2-1.5,0.4-2.3,0.5c-0.8,0.1-1.7,0.1-2.6,0.1c-3,0-5.1-0.8-6.2-2.3c-1.1-1.6-1.6-3.6-1.6-6.1
			V64.1h-5.3v-5.3h5.3V47.9z"/>
	</g>
</g>
</svg>
